<svg width="20" height="20" viewBox="0 0 20 20" fill="none"
  xmlns="http://www.w3.org/2000/svg">
  <path d="M9.25 4H4C3.60218 4 3.22064 4.15804 2.93934 4.43934C2.65804 4.72064 2.5 5.10218 2.5 5.5V16C2.5 16.3978 2.65804 16.7794 2.93934 17.0607C3.22064 17.342 3.60218 17.5 4 17.5H14.5C14.8978 17.5 15.2794 17.342 15.5607 17.0607C15.842 16.7794 16 16.3978 16 16V10.75" stroke="#36394A" stroke-width="1.5" stroke-linecap="round" stroke-linejoin="round"/>
  <path d="M14.875 2.87499C15.1734 2.57662 15.578 2.409 16 2.409C16.422 2.409 16.8266 2.57662 17.125 2.87499C17.4234 3.17336 17.591 3.57803 17.591 3.99999C17.591 4.42194 17.4234 4.82662 17.125 5.12499L10 12.25L7 13L7.75 9.99999L14.875 2.87499Z" stroke="#36394A" stroke-width="1.5" stroke-linecap="round" stroke-linejoin="round"/>
</svg>
