<svg width="20" height="20" viewBox="0 0 20 20" fill="none"
  xmlns="http://www.w3.org/2000/svg">
  <path d="M16.6301 4.4575C16.247 4.07425 15.7922 3.77023 15.2916 3.56281C14.791 3.35539 14.2545 3.24863 13.7126 3.24863C13.1707 3.24863 12.6342 3.35539 12.1336 3.56281C11.633 3.77023 11.1782 4.07425 10.7951 4.4575L10.0001 5.2525L9.20509 4.4575C8.43132 3.68373 7.38186 3.24903 6.28759 3.24903C5.19331 3.24903 4.14386 3.68373 3.37009 4.4575C2.59632 5.23127 2.16162 6.28072 2.16162 7.375C2.16162 8.46927 2.59632 9.51873 3.37009 10.2925L4.16509 11.0875L10.0001 16.9225L15.8351 11.0875L16.6301 10.2925C17.0133 9.90943 17.3174 9.45461 17.5248 8.95401C17.7322 8.45342 17.839 7.91686 17.839 7.375C17.839 6.83313 17.7322 6.29657 17.5248 5.79598C17.3174 5.29539 17.0133 4.84056 16.6301 4.4575V4.4575Z" stroke="#FFFCFC" stroke-width="1.5" stroke-linecap="round" stroke-linejoin="round"/>
</svg>
