<svg width="21" height="20" viewBox="0 0 21 20" fill="none"
  xmlns="http://www.w3.org/2000/svg">
  <path d="M10.5 16C10.9142 16 11.25 15.6642 11.25 15.25C11.25 14.8358 10.9142 14.5 10.5 14.5C10.0858 14.5 9.75 14.8358 9.75 15.25C9.75 15.6642 10.0858 16 10.5 16Z" stroke="#666D80" stroke-width="1.5" stroke-linecap="round" stroke-linejoin="round"/>
  <path d="M10.5 10.75C10.9142 10.75 11.25 10.4142 11.25 10C11.25 9.58579 10.9142 9.25 10.5 9.25C10.0858 9.25 9.75 9.58579 9.75 10C9.75 10.4142 10.0858 10.75 10.5 10.75Z" stroke="#666D80" stroke-width="1.5" stroke-linecap="round" stroke-linejoin="round"/>
  <path d="M10.5 5.5C10.9142 5.5 11.25 5.16421 11.25 4.75C11.25 4.33579 10.9142 4 10.5 4C10.0858 4 9.75 4.33579 9.75 4.75C9.75 5.16421 10.0858 5.5 10.5 5.5Z" stroke="#666D80" stroke-width="1.5" stroke-linecap="round" stroke-linejoin="round"/>
</svg>
